<!-- <svg width="30" height="30" viewBox="0 0 47 40" fill="none" xmlns="http://www.w3.org/2000/svg">
<g id="Logo">
<path id="Vector" d="M11.6088 6.78599C5.2742 10.2556 0.12239 13.1469 0.174959 13.1732C0.227529 13.1995 5.48448 16.0908 11.898 19.5867L23.5158 25.9213L33.0572 20.7169L42.5722 15.4862L42.6511 22.8197L42.7037 30.1268H44.8064H46.9092V21.6106V13.0943L35.3176 6.7597C28.9567 3.26384 23.5947 0.425083 23.4369 0.451368C23.253 0.451368 17.9434 3.3164 11.6088 6.78599Z" fill="black"/>
<path id="Vector_2" d="M8.5332 27.3945V31.5475L16.0244 35.6479L23.5155 39.7483L31.0066 35.6479L38.4978 31.5475V27.3945C38.4978 25.1077 38.4189 23.2415 38.3138 23.2415C38.1824 23.2415 34.8705 25.0288 30.9015 27.1842C26.9325 29.3658 23.6206 31.1269 23.5155 31.1269C23.4104 31.1269 20.0985 29.3658 16.1295 27.1842C12.1605 25.0288 8.84862 23.2415 8.74348 23.2415C8.61206 23.2415 8.5332 25.1077 8.5332 27.3945Z" fill="black"/>
</g>
</svg> -->

<svg xmlns="http://www.w3.org/2000/svg" viewBox="0 0 24 24" fill="#5C6BC0" class="size-6">
  <path d="M11.7 2.805a.75.75 0 0 1 .6 0A60.65 60.65 0 0 1 22.83 8.72a.75.75 0 0 1-.231 1.337 49.948 49.948 0 0 0-9.902 3.912l-.003.002c-.114.06-.227.119-.34.18a.75.75 0 0 1-.707 0A50.88 50.88 0 0 0 7.5 12.173v-.224c0-.131.067-.248.172-.311a54.615 54.615 0 0 1 4.653-2.52.75.75 0 0 0-.65-1.352 56.123 56.123 0 0 0-4.78 2.589 1.858 1.858 0 0 0-.859 1.228 49.803 49.803 0 0 0-4.634-1.527.75.75 0 0 1-.231-1.337A60.653 60.653 0 0 1 11.7 2.805Z" />
  <path d="M13.06 15.473a48.45 48.45 0 0 1 7.666-3.282c.134 1.414.22 2.843.255 4.284a.75.75 0 0 1-.46.711 47.87 47.87 0 0 0-8.105 4.342.75.75 0 0 1-.832 0 47.87 47.87 0 0 0-8.104-4.342.75.75 0 0 1-.461-.71c.035-1.442.121-2.87.255-4.286.921.304 1.83.634 2.726.99v1.27a1.5 1.5 0 0 0-.14 2.508c-.09.38-.222.753-.397 1.11.452.213.901.434 1.346.66a6.727 6.727 0 0 0 .551-1.607 1.5 1.5 0 0 0 .14-2.67v-.645a48.549 48.549 0 0 1 3.44 1.667 2.25 2.25 0 0 0 2.12 0Z" />
  <path d="M4.462 19.462c.42-.419.753-.89 1-1.395.453.214.902.435 1.347.662a6.742 6.742 0 0 1-1.286 1.794.75.75 0 0 1-1.06-1.06Z" />
</svg>
