<?xml version="1.0" encoding="utf-8"?>
<!-- Generator: Adobe Illustrator 27.5.0, SVG Export Plug-In . SVG Version: 6.00 Build 0)  -->
	 <!-- viewBox="280 280 150 150" -->
<svg version="1.1" xmlns="http://www.w3.org/2000/svg" xmlns:xlink="http://www.w3.org/1999/xlink" x="0px" y="0px"
	 viewBox="66 79 159 159"
	 style="enable-background:new 0 0 500 500;" xml:space="preserve">
<g id="BACKGROUND">
	<rect x="0.224" style="fill:#FFFFFF;" width="500" height="500"/>
</g>
<g id="OBJECTS">
	<g>
		<path style="fill:#DEDFE0;" d="M225.751,158.571c0,21.45-8.49,40.91-22.29,55.21c-9.73,10.09-22.1,17.61-36,21.45
			c-6.76,1.88-13.89,2.88-21.25,2.88c-6.4,0-12.63-0.76-18.6-2.19c-14.98-3.59-28.31-11.41-38.64-22.14
			c-13.81-14.3-22.29-33.77-22.29-55.21c0-43.92,35.61-79.53,79.53-79.53C190.141,79.041,225.751,114.651,225.751,158.571z"/>
		<g>
			<path style="fill:#555A5E;" d="M173.56,152.731v-17.555c0-15.22-12.338-27.557-27.557-27.557h0
				c-15.219,0-27.557,12.338-27.557,27.557v17.555c0,4.918-1.815,9.662-5.097,13.324l0,0c-3.282,3.662-5.097,8.407-5.097,13.325
				v23.869h75.501V179.38c0-4.918-1.815-9.662-5.097-13.325l0,0C175.374,162.393,173.56,157.649,173.56,152.731z"/>
			<path style="fill:#F4F4F4;" d="M203.457,213.775c-5.56,5.76-11.98,10.69-19.07,14.57c-2.34,1.29-4.75,2.46-7.23,3.51
				c-0.08,0.03-0.16,0.07-0.24,0.1c-3.48,1.46-7.09,2.68-10.81,3.63c-0.82,0.22-1.64,0.42-2.47,0.6c-0.04,0.01-0.09,0.02-0.13,0.03
				c-1.31,0.29-2.62,0.55-3.96,0.77c-4.34,0.74-8.79,1.12-13.34,1.12c-4.53,0-8.98-0.38-13.3-1.11c-1.17-0.2-2.34-0.42-3.49-0.68
				c-0.82-0.17-1.64-0.36-2.46-0.56c-0.87-0.22-1.74-0.45-2.6-0.7c-2.81-0.79-5.55-1.74-8.21-2.84c-0.29-0.11-0.57-0.23-0.86-0.35
				c-2.41-1.01-4.76-2.15-7.04-3.39c-7.17-3.9-13.67-8.87-19.29-14.7l1.37-5.4c2.07-8.11,8.46-14.41,16.61-16.36l1.31-0.31l5.86-1.4
				l2.04-0.49l4.41-1.05c1.15-0.28,2.25-0.67,3.29-1.17c0.05-0.02,0.1-0.05,0.15-0.08c0.2-0.1,0.39-0.2,0.58-0.3h0.01
				c0.84-0.45,1.63-0.97,2.37-1.56c0.61-0.48,1.18-1,1.71-1.56c0.22-0.23,0.43-0.47,0.63-0.71c0.4-0.47,0.77-0.96,1.11-1.47
				c1.04-1.53,1.82-3.25,2.3-5.1l1.06-4.12l0.28-1.11l0.02-0.09l1.36-5.25l0.4-1.57h20.75l1.55,6l0.14,0.54l0.08,0.3l0.01,0.07
				l0.29,1.12l1.06,4.11c0.47,1.85,1.26,3.57,2.3,5.1c0.45,0.67,0.95,1.31,1.5,1.9c0.78,0.86,1.65,1.63,2.6,2.31
				c0.55,0.4,1.13,0.76,1.73,1.09c0.3,0.17,0.6,0.32,0.9,0.46c0.99,0.46,2.04,0.83,3.12,1.09l5.06,1.21l1.61,0.38l5.86,1.4
				l1.09,0.26c8.15,1.95,14.54,8.25,16.61,16.36L203.457,213.775z"/>
			<path style="fill:#D2D4DA;" d="M158.35,171.521c-1.76,7.73-6.525,13.274-12.131,13.274c-5.61,0-10.384-5.556-12.14-13.295
				l1.354-5.25l0.406-1.569h20.748l1.544,5.999l0.141,0.538L158.35,171.521z"/>
			<path style="fill:#F4F4F4;" d="M120.116,142.105c-10.331-11.592-3.438,16.746,2.277,13.434
				C132.439,149.718,120.116,142.105,120.116,142.105z"/>
			<path style="fill:#F4F4F4;" d="M172.32,142.105c10.331-11.592,3.438,16.746-2.277,13.434
				C159.997,149.718,172.32,142.105,172.32,142.105z"/>
			<path style="fill:#F4F4F4;" d="M170.257,133.755c0,0.88-0.05,1.74-0.15,2.6c-0.06,0.59-0.27,2.66-0.65,5.49
				c-0.12,0.89-0.25,1.85-0.4,2.87c-0.35,2.38-0.79,5.05-1.32,7.72c-1.28,6.42-3.07,12.82-5.41,15.16c-1.29,1.29-2.46,2.53-3.6,3.66
				c-0.96,0.95-1.9,1.82-2.88,2.58c-0.07,0.05-0.13,0.11-0.2,0.16c-0.16,0.13-0.33,0.25-0.5,0.37c-1.18,0.85-2.43,1.55-3.84,2.03
				c-1.48,0.51-3.14,0.79-5.09,0.79c-1.84,0-3.43-0.25-4.84-0.72c-1.52-0.48-2.84-1.2-4.09-2.09c-0.12-0.08-0.23-0.17-0.34-0.26
				c-0.05-0.03-0.1-0.07-0.15-0.11c-1.05-0.81-2.06-1.73-3.08-2.75c-1.15-1.13-2.32-2.37-3.61-3.66c-2.33-2.33-4.12-8.73-5.39-15.15
				h-0.01c-0.03-0.14-0.05-0.28-0.08-0.42l-0.01-0.01c-0.13-0.71-0.27-1.41-0.39-2.11c-0.06-0.34-0.12-0.68-0.18-1.02
				c-0.25-1.45-0.47-2.85-0.67-4.17c-0.15-1.02-0.28-1.98-0.4-2.87c-0.45-3.37-0.67-5.67-0.67-5.67c-0.07-0.79-0.12-1.6-0.12-2.42
				c0-0.21,0.01-0.42,0.01-0.63c0.01-0.45,0.04-0.89,0.07-1.33c0.11-1.28,0.31-2.53,0.61-3.75c0.03-0.14,0.06-0.27,0.1-0.41
				c0.02-0.08,0.04-0.16,0.06-0.24c1.36-4.96,4.27-9.27,8.18-12.4c0.02-0.01,0.03-0.03,0.05-0.04c3.77-3.01,8.46-4.91,13.58-5.19
				c0.45-0.03,0.9-0.04,1.36-0.04h0.01c5.76,0,11.04,2.02,15.18,5.39c0.64,0.51,1.24,1.06,1.82,1.64c3.06,3.06,5.3,6.94,6.36,11.29
				c0.3,1.21,0.5,2.47,0.6,3.75C170.227,132.445,170.257,133.095,170.257,133.755z"/>
			<path style="fill:#DEDFE0;" d="M150.093,157.366c0,1.659-1.69,3.003-3.78,3.003c-2.08,0-3.77-1.343-3.77-3.003
				c0-0.199,0.02-0.398,0.08-0.583c0.33,1.378,1.86,2.42,3.69,2.42c1.84,0,3.37-1.042,3.7-2.42
				C150.073,156.968,150.093,157.167,150.093,157.366z"/>
			<path style="fill:#555A5E;" d="M170.708,133.095c0,0.933-0.051,1.845-0.153,2.757c-0.061,0.625-0.275,2.82-0.662,5.82
				c-0.122,0.944-0.683,1.961-0.836,3.043c-27.741-0.255-31.326-23.484-31.326-23.484c-2.73,20.494-14.354,23.484-14.354,23.484
				c-0.153-1.081-0.714-2.099-0.836-3.043c-0.458-3.573-0.683-6.011-0.683-6.011c-0.071-0.838-0.122-1.696-0.122-2.566
				c0-0.223,0.01-0.445,0.01-0.668c0.01-0.477,0.041-0.944,0.071-1.41c0.112-1.357,0.316-2.682,0.622-3.976
				c0.03-0.148,0.061-0.286,0.102-0.435c0.02-0.085,0.041-0.17,0.061-0.254c1.386-5.259,4.35-9.828,8.333-13.147
				c0.02-0.011,0.031-0.032,0.051-0.042c3.841-3.191,8.619-5.206,13.835-5.503c0.458-0.032,0.917-0.042,1.385-0.042h0.01
				c5.868,0,11.247,2.142,15.465,5.715c0.652,0.541,1.263,1.124,1.854,1.739c3.117,3.244,5.399,7.358,6.479,11.97
				c0.306,1.283,0.509,2.619,0.611,3.976C170.677,131.706,170.708,132.396,170.708,133.095z"/>
			<g>
				<g>
					<polygon style="fill:#D2D4DA;" points="114.107,190.305 114.107,218.505 108.247,218.505 108.247,191.705 					"/>
					<polygon style="fill:#D2D4DA;" points="184.387,191.755 184.387,218.505 178.527,218.505 178.527,190.355 					"/>
				</g>
				<g>
					<path style="fill:#6E7174;" d="M184.387,212.905v15.44c-2.34,1.29-4.75,2.46-7.23,3.51c-0.08,0.03-0.16,0.07-0.24,0.1
						c-3.48,1.46-7.09,2.68-10.81,3.63c-0.82,0.22-1.64,0.42-2.47,0.6c-0.04,0.01-0.09,0.02-0.13,0.03
						c-1.31,0.29-2.62,0.55-3.96,0.77c-4.34,0.74-8.79,1.12-13.34,1.12c-4.53,0-8.98-0.38-13.3-1.11c-1.17-0.2-2.34-0.42-3.49-0.68
						c-0.82-0.17-1.64-0.36-2.46-0.56c-0.87-0.22-1.74-0.45-2.6-0.7c-2.81-0.79-5.55-1.74-8.21-2.84c-0.29-0.11-0.57-0.23-0.86-0.35
						c-2.41-1.01-4.76-2.15-7.04-3.39v-15.57h18.95c6.08,0,11.49,2.83,14.99,7.25c2.14,2.69,6.13,2.69,8.26,0
						c3.5-4.42,8.91-7.25,14.99-7.25H184.387z"/>
				</g>
			</g>
		</g>
	</g>
	<g>
		<path style="fill:#DEDFE0;" d="M434.828,352.849c0,21.45-8.49,40.91-22.29,55.21c-9.73,10.09-22.1,17.61-36,21.45
			c-6.76,1.88-13.89,2.88-21.25,2.88c-6.4,0-12.63-0.76-18.6-2.19c-14.98-3.59-28.31-11.41-38.64-22.14
			c-13.81-14.3-22.29-33.77-22.29-55.21c0-43.92,35.61-79.53,79.53-79.53C399.218,273.319,434.828,308.93,434.828,352.849z"/>
		<g>
			<path style="fill:#F4F4F4;" d="M412.534,408.054c-0.88,0.91-1.79,1.81-2.71,2.67c-4.9,4.63-10.39,8.64-16.36,11.9
				c-0.64,0.35-1.29,0.7-1.94,1.03c-1.72,0.89-3.49,1.72-5.29,2.48c-0.08,0.03-0.16,0.07-0.24,0.1c-3.48,1.46-7.09,2.68-10.81,3.63
				c-0.82,0.22-1.64,0.42-2.47,0.6c-0.04,0.01-0.09,0.02-0.13,0.03c-1.31,0.29-2.62,0.55-3.96,0.77c-4.34,0.74-8.79,1.12-13.34,1.12
				c-4.53,0-8.98-0.38-13.3-1.11c-1.17-0.2-2.34-0.42-3.49-0.68c-0.82-0.17-1.64-0.36-2.46-0.56c-0.87-0.22-1.74-0.45-2.6-0.7
				c-2.81-0.79-5.55-1.74-8.21-2.84c-0.29-0.11-0.57-0.23-0.86-0.35c-1.8-0.75-3.56-1.58-5.29-2.47c-0.59-0.3-1.17-0.6-1.75-0.92
				c-6.05-3.29-11.61-7.34-16.58-12.03c-0.93-0.87-1.83-1.76-2.71-2.67l1.37-5.4c0.03-0.11,0.06-0.22,0.09-0.32
				c2.15-7.96,8.48-14.12,16.52-16.04l1.31-0.31l5.86-1.4l2.04-0.49l4.41-1.05c1.15-0.28,2.25-0.67,3.29-1.17
				c0.01,0,0.01-0.01,0.02-0.01c0.04-0.02,0.09-0.04,0.13-0.07c0.2-0.1,0.39-0.2,0.58-0.3h0.01c0.84-0.45,1.63-0.97,2.37-1.56
				c0.61-0.48,1.18-1,1.71-1.56c0.22-0.23,0.43-0.47,0.63-0.71c0.4-0.47,0.77-0.96,1.11-1.47c1.04-1.53,1.82-3.25,2.3-5.1l1.06-4.12
				l0.28-1.11l0.02-0.09l1.36-5.25l0.4-1.57h20.75l1.55,6l0.14,0.54l0.08,0.3l0.01,0.07l0.29,1.12l1.06,4.11
				c0.47,1.85,1.26,3.57,2.3,5.1c0.45,0.67,0.95,1.31,1.5,1.9c0.78,0.86,1.65,1.63,2.6,2.31c0.55,0.4,1.13,0.76,1.73,1.09
				c0.28,0.16,0.56,0.3,0.84,0.43c0.02,0.01,0.04,0.02,0.06,0.03c0.99,0.46,2.04,0.83,3.12,1.09l5.06,1.21l1.61,0.38l5.86,1.4
				l1.09,0.26c8.04,1.92,14.37,8.08,16.52,16.04c0.03,0.1,0.06,0.21,0.09,0.32L412.534,408.054z"/>
			<path style="fill:#6E7174;" d="M412.534,408.054c-0.88,0.91-1.79,1.81-2.71,2.67c-4.9,4.63-10.39,8.64-16.36,11.9
				c-0.64,0.35-1.29,0.7-1.94,1.03c-1.72,0.89-3.49,1.72-5.29,2.48c-0.08,0.03-0.16,0.07-0.24,0.1c-3.48,1.46-7.09,2.68-10.81,3.63
				c-0.82,0.22-1.64,0.42-2.47,0.6c-0.04,0.01-0.09,0.02-0.13,0.03c-1.31,0.29-2.62,0.55-3.96,0.77c-4.34,0.74-8.79,1.12-13.34,1.12
				c-4.53,0-8.98-0.38-13.3-1.11c-1.17-0.2-2.34-0.42-3.49-0.68c-0.82-0.17-1.64-0.36-2.46-0.56c-0.87-0.22-1.74-0.45-2.6-0.7
				c-2.81-0.79-5.55-1.74-8.21-2.84c-0.29-0.11-0.57-0.23-0.86-0.35c-1.8-0.75-3.56-1.58-5.29-2.47c-0.59-0.3-1.17-0.6-1.75-0.92
				c-6.05-3.29-11.61-7.34-16.58-12.03c-0.93-0.87-1.83-1.76-2.71-2.67l1.37-5.4c0.03-0.11,0.06-0.22,0.09-0.32
				c2.15-7.96,8.48-14.12,16.52-16.04l1.31-0.31l5.86-1.4l2.04-0.49l4.41-1.05c1.15-0.28,2.25-0.67,3.29-1.17
				c0.01,0,0.01-0.01,0.02-0.01l0.04,0.01l22.41,18.38l22.36-18.33c0.02,0.01,0.04,0.02,0.06,0.03c0.99,0.46,2.04,0.83,3.12,1.09
				l5.06,1.21l1.61,0.38l5.86,1.4l1.09,0.26c8.04,1.92,14.37,8.08,16.52,16.04c0.03,0.1,0.06,0.21,0.09,0.32L412.534,408.054z"/>
			<path style="fill:#555A5E;" d="M382.554,332.094c0,2.68-0.31,5.28-0.86,7.76v0.01c-3.02,13.41-13.7,23.31-26.4,23.31
				c-3.26,0-6.39-0.65-9.28-1.85c-10.5-4.32-17.99-15.77-17.99-29.23c0-1.42,0.08-2.81,0.25-4.18l0.32-2.15
				c0.14-0.82,0.32-1.62,0.52-2.42c1.52-5.91,4.54-11.1,8.56-14.98c4.75-4.59,10.91-7.36,17.62-7.36
				C370.354,301.004,382.554,314.924,382.554,332.094z"/>
			<g>
				<g>
					<path style="fill:#555A5E;" d="M381.415,323.206l5.234,35.031c1.222,8.179-6.348,14.925-14.332,12.773l-7.393-1.993
						l-1.972-28.295L381.415,323.206z"/>
					<g>
						<g>
							<path style="fill:#555A5E;" d="M383.773,374.665c0,2.8-2.27,5.069-5.069,5.069c-2.8,0-5.069-2.27-5.069-5.069
								c0-2.8,2.27-5.069,5.069-5.069C381.504,369.596,383.773,371.866,383.773,374.665z"/>
							<circle style="fill:#555A5E;" cx="378.704" cy="384.038" r="5.069"/>
							<path style="fill:#555A5E;" d="M383.773,393.546c0,2.8-2.27,5.069-5.069,5.069c-2.8,0-5.069-2.27-5.069-5.069
								c0-2.8,2.27-5.069,5.069-5.069C381.504,388.477,383.773,390.747,383.773,393.546z"/>
						</g>
						<polygon style="fill:#555A5E;" points="378.704,393.943 369.013,410.728 388.395,410.728 						"/>
					</g>
				</g>
				<g>
					<path style="fill:#555A5E;" d="M347.444,340.724l-1.43,20.6l-0.54,7.69l-7.4,2c-0.85,0.23-1.69,0.35-2.52,0.39
						c-2.13,0.1-4.15-0.41-5.92-1.37c-4.01-2.19-6.65-6.72-5.89-11.8l4.53-30.32l0.32-2.15c0.14-0.82,0.32-1.62,0.52-2.42
						L347.444,340.724z"/>
					<g>
						<g>
							<path style="fill:#555A5E;" d="M326.62,374.665c0,2.8,2.27,5.069,5.069,5.069c2.8,0,5.069-2.27,5.069-5.069
								c0-2.8-2.27-5.069-5.069-5.069C328.889,369.596,326.62,371.866,326.62,374.665z"/>
							<path style="fill:#555A5E;" d="M326.62,384.038c0,2.8,2.27,5.069,5.069,5.069c2.8,0,5.069-2.27,5.069-5.069
								s-2.27-5.069-5.069-5.069C328.889,378.968,326.62,381.238,326.62,384.038z"/>
							<path style="fill:#555A5E;" d="M326.62,393.546c0,2.8,2.27,5.069,5.069,5.069c2.8,0,5.069-2.27,5.069-5.069
								c0-2.8-2.27-5.069-5.069-5.069C328.889,388.477,326.62,390.747,326.62,393.546z"/>
						</g>
						<polygon style="fill:#555A5E;" points="331.689,393.943 341.38,410.728 321.998,410.728 						"/>
						<rect x="328.463" y="397.455" style="fill:#D2D4DA;" width="6.519" height="2.191"/>
						<rect x="375.444" y="397.455" style="fill:#D2D4DA;" width="6.519" height="2.191"/>
					</g>
				</g>
			</g>
			<g>
				<path style="fill:#D2D4DA;" d="M367.426,365.8c-1.76,7.73-6.525,13.274-12.131,13.274c-5.61,0-10.384-5.556-12.14-13.295
					l1.354-5.25l0.406-1.569h20.748l1.544,5.999l0.141,0.538L367.426,365.8z"/>
				<path style="fill:#F4F4F4;" d="M329.192,336.384c-10.331-11.592-3.438,16.746,2.277,13.434
					C341.516,343.997,329.192,336.384,329.192,336.384z"/>
				<path style="fill:#F4F4F4;" d="M381.396,336.384c10.331-11.592,3.438,16.746-2.277,13.434
					C369.073,343.997,381.396,336.384,381.396,336.384z"/>
				<path style="fill:#F4F4F4;" d="M379.334,328.034c0,0.88-0.05,1.74-0.15,2.6c-0.06,0.59-0.27,2.66-0.65,5.49
					c-0.12,0.89-0.25,1.85-0.4,2.87c-0.35,2.38-0.79,5.05-1.32,7.72c-1.28,6.42-3.07,12.82-5.41,15.16
					c-1.29,1.29-2.46,2.53-3.6,3.66c-0.96,0.95-1.9,1.82-2.88,2.58c-0.07,0.05-0.13,0.11-0.2,0.16c-0.16,0.13-0.33,0.25-0.5,0.37
					c-1.18,0.85-2.43,1.55-3.84,2.03c-1.48,0.51-3.14,0.79-5.09,0.79c-1.84,0-3.43-0.25-4.84-0.72c-1.52-0.48-2.84-1.2-4.09-2.09
					c-0.12-0.08-0.23-0.17-0.34-0.26c-0.05-0.03-0.1-0.07-0.15-0.11c-1.05-0.81-2.06-1.73-3.08-2.75c-1.15-1.13-2.32-2.37-3.61-3.66
					c-2.33-2.33-4.12-8.73-5.39-15.15h-0.01c-0.03-0.14-0.05-0.28-0.08-0.42l-0.01-0.01c-0.13-0.71-0.27-1.41-0.39-2.11
					c-0.06-0.34-0.12-0.68-0.18-1.02c-0.25-1.45-0.47-2.85-0.67-4.17c-0.15-1.02-0.28-1.98-0.4-2.87c-0.45-3.37-0.67-5.67-0.67-5.67
					c-0.07-0.79-0.12-1.6-0.12-2.42c0-0.21,0.01-0.42,0.01-0.63c0.01-0.45,0.04-0.89,0.07-1.33c0.02-0.2,0.04-0.4,0.06-0.6
					c0.12-1.07,0.3-2.12,0.55-3.15c0.03-0.14,0.06-0.27,0.1-0.41c0.02-0.08,0.04-0.16,0.06-0.24c1.36-4.96,4.27-9.27,8.18-12.4
					c0.02-0.01,0.03-0.03,0.05-0.04c3.77-3.01,8.46-4.91,13.58-5.19c0.45-0.03,0.9-0.04,1.36-0.04h0.01
					c5.76,0,11.04,2.02,15.18,5.39c0.64,0.51,1.24,1.06,1.82,1.64c3.06,3.06,5.3,6.94,6.36,11.29c0.25,1.02,0.44,2.08,0.54,3.15
					c0.03,0.2,0.04,0.4,0.06,0.6C379.304,326.724,379.334,327.374,379.334,328.034z"/>
				<path style="fill:#DEDFE0;" d="M359.169,351.645c0,1.659-1.69,3.003-3.78,3.003c-2.08,0-3.77-1.344-3.77-3.003
					c0-0.199,0.02-0.397,0.08-0.583c0.33,1.378,1.86,2.42,3.69,2.42c1.84,0,3.37-1.042,3.7-2.42
					C359.149,351.247,359.169,351.446,359.169,351.645z"/>
			</g>
			<path style="fill:#555A5E;" d="M380.338,325.988H330.26c0.126-1.121,0.314-2.221,0.576-3.301c0.031-0.147,0.063-0.283,0.105-0.43
				c0.021-0.084,0.042-0.168,0.063-0.251c1.425-5.198,4.474-9.714,8.572-12.994c0.021-0.01,0.031-0.031,0.052-0.042
				c3.951-3.154,8.865-5.145,14.23-5.439c0.471-0.031,0.943-0.042,1.425-0.042h0.01c6.036,0,11.569,2.117,15.907,5.648
				c0.671,0.534,1.299,1.111,1.907,1.718c3.206,3.207,5.554,7.272,6.664,11.831C380.034,323.756,380.233,324.867,380.338,325.988z"
				/>
			<g>
				<path style="fill:#555A5E;" d="M378.134,338.994L378.134,338.994c-3.45,0-6.247-2.797-6.247-6.247v-9.541l7.796,0.957
					l1.268,6.496L378.134,338.994z"/>
				<path style="fill:#555A5E;" d="M332.455,338.994L332.455,338.994c3.45,0,6.247-2.797,6.247-6.247v-9.541l-7.796,0.957
					l-1.268,6.496L332.455,338.994z"/>
			</g>
		</g>
	</g>
	<g>
		<path style="fill:#DEDFE0;" d="M225.751,352.853c0,21.443-8.488,40.907-22.284,55.208c-14.467,14.997-34.767,24.325-57.249,24.325
			c-22.482,0-42.791-9.328-57.25-24.329c-13.804-14.301-22.288-33.765-22.288-55.204c0-43.926,35.612-79.533,79.537-79.533
			C190.144,273.32,225.751,308.927,225.751,352.853z"/>
		<g>
			<path style="fill:#D2D4DA;" d="M158.352,365.801c-1.76,7.73-6.525,13.274-12.131,13.274c-5.61,0-10.384-5.556-12.14-13.295
				l1.354-5.25l0.406-1.569h20.748l1.544,5.999l0.141,0.538L158.352,365.801z"/>
			<path style="fill:#6E7174;" d="M181.769,391.982h-72.933v-8.138c0-5.699,4.62-10.319,10.319-10.319h52.295
				c5.699,0,10.319,4.62,10.319,10.319V391.982z"/>
			<g>
				<path style="fill:#555A5E;" d="M146.702,304h-4.491c-10.655,0-19.718,7.771-21.343,18.302l-0.695,4.501
					c-1.118,7.249-1.211,14.618-0.276,21.893l0,0c1.068,8.304,8.138,14.522,16.51,14.522l0,0L146.702,304z"/>
				<g>
					<path style="fill:#555A5E;" d="M172.419,341.745h-52.855v-13.718c0-14.296,11.59-25.886,25.886-25.886h1.083
						c14.296,0,25.886,11.59,25.886,25.886V341.745z"/>
					<path style="fill:#555A5E;" d="M146.217,304h4.491c10.655,0,19.718,7.771,21.343,18.302l0.694,4.501
						c1.119,7.249,1.211,14.618,0.276,21.893l0,0c-1.068,8.304-8.138,14.522-16.51,14.522l0,0L146.217,304z"/>
					<path style="fill:#F4F4F4;" d="M172.322,336.384c10.331-11.592,3.438,16.746-2.277,13.434
						C159.999,343.997,172.322,336.384,172.322,336.384z"/>
					<path style="fill:#F4F4F4;" d="M203.464,408.06c-5.37,5.56-11.54,10.34-18.32,14.16c-10.46,5.89-22.38,9.47-35.09,10.07
						c-1.27,0.07-2.55,0.1-3.84,0.1c-6.41,0-12.64-0.76-18.61-2.19c-8.32-1.99-16.12-5.29-23.19-9.67
						c-5.67-3.51-10.85-7.7-15.45-12.47l1.37-5.4c2.07-8.11,8.46-14.41,16.61-16.36l0.9-0.21l9.99-2.39l2.73-0.65
						c1.15-0.28,2.25-0.67,3.29-1.17c0.87-0.42,1.7-0.91,2.48-1.47c0.84-0.6,1.63-1.28,2.34-2.03c1.91-2.01,3.32-4.49,4.04-7.28
						l1.06-4.12l0.28-1.11l0.02-0.09l1.36-5.25l0.4-1.57h20.75l1.55,6l0.14,0.54l0.08,0.3l0.01,0.07l0.29,1.12l1.06,4.11
						c0.99,3.82,3.28,7.09,6.39,9.31c1.7,1.23,3.65,2.14,5.76,2.64l2.52,0.6l11.1,2.65c8.15,1.95,14.54,8.25,16.61,16.36
						L203.464,408.06z"/>
					<rect x="126.505" y="399.672" style="fill:#D2D4DA;" width="38.189" height="19.554"/>
					<path style="fill:#D2D4DA;" d="M158.352,365.801c-1.76,7.73-6.525,13.274-12.131,13.274c-5.61,0-10.384-5.556-12.14-13.295
						l1.354-5.25l0.406-1.569h20.748l1.544,5.999l0.141,0.538L158.352,365.801z"/>
					<path style="fill:#F4F4F4;" d="M120.118,336.384c-10.331-11.592-3.438,16.746,2.277,13.434
						C132.441,343.997,120.118,336.384,120.118,336.384z"/>
					<path style="fill:#F4F4F4;" d="M170.257,328.03c0,0.88-0.05,1.74-0.15,2.6c-0.12,1.22-0.9,8.59-2.36,15.98
						c-0.01,0.03-0.01,0.07-0.02,0.1c-1.27,6.43-3.06,12.83-5.4,15.16c-2.64,2.64-4.76,5.04-7.18,6.77
						c-2.42,1.74-5.13,2.82-8.93,2.82c-3.8,0-6.51-1.08-8.93-2.82c-2.41-1.73-4.54-4.13-7.18-6.77c-2.34-2.34-4.13-8.75-5.41-15.17
						v-0.01c-0.01-0.01-0.01-0.02-0.01-0.03c-0.16-0.83-0.31-1.66-0.46-2.48c-0.06-0.34-0.12-0.68-0.18-1.02
						c-1.17-6.78-1.74-12.71-1.74-12.71c-0.08-0.79-0.12-1.6-0.12-2.42c0-0.21,0-0.42,0.01-0.63c0.05-1.89,0.31-3.73,0.78-5.49
						c0.02-0.08,0.04-0.16,0.06-0.24c2.67-9.76,11.34-17.05,21.8-17.63c0.46-0.03,0.91-0.04,1.38-0.04c6.64,0,12.65,2.69,17,7.04
						C167.567,315.38,170.257,321.39,170.257,328.03z"/>
					<path style="fill:#DEDFE0;" d="M149.995,349.643c0,1.659-1.69,3.003-3.78,3.003c-2.08,0-3.77-1.344-3.77-3.003
						c0-0.199,0.02-0.397,0.08-0.583c0.33,1.378,1.86,2.42,3.69,2.42c1.84,0,3.37-1.042,3.7-2.42
						C149.975,349.245,149.995,349.444,149.995,349.643z"/>
					<path style="fill:#555A5E;" d="M122.187,325.396v12.515l1.195,1.084h1.561c1.974,0,3.691-1.35,4.157-3.268l2.015-8.297
						c0.76-3.13,3.563-5.334,6.784-5.334h16.759c3.221,0,6.024,2.204,6.784,5.334l2.015,8.297c0.466,1.918,2.183,3.268,4.157,3.268
						h0.756c0.474,0,0.888-0.321,1.005-0.78l0.995-3.886v-8.933c0-11.817-9.579-21.396-21.396-21.396h-5.39
						C131.766,304,122.187,313.58,122.187,325.396z"/>
				</g>
			</g>
			<path style="fill:#6E7174;" d="M202.094,402.659c-2.07-8.11-8.46-14.41-16.61-16.36l-3.773-0.901v0l-14.307-8.032v7.065
				c0,4.632-1.652,9.111-4.659,12.634l-16.751,19.624l-18.191-21.311c-3.007-3.523-4.659-8.002-4.659-12.634v-5.378l-14.307,8.032
				l0.173,0.412l-1.166,0.279l-0.9,0.21c-8.15,1.95-14.54,8.25-16.61,16.36l-1.37,5.4c4.6,4.77,9.78,8.96,15.45,12.47
				c7.07,4.38,14.87,7.68,23.19,9.67c5.97,1.43,12.2,2.19,18.61,2.19c1.29,0,2.57-0.03,3.84-0.1c12.71-0.6,24.63-4.18,35.09-10.07
				c6.78-3.82,12.95-8.6,18.32-14.16L202.094,402.659z"/>
			<g>
				<rect x="123.463" y="397.255" style="fill:#D2D4DA;" width="2.263" height="23.951"/>
				<rect x="166.718" y="397.255" style="fill:#D2D4DA;" width="2.263" height="23.951"/>
			</g>
		</g>
	</g>
	<g>
		<path style="fill:#DEDFE0;" d="M434.828,158.552c0,21.443-8.488,40.907-22.284,55.208c-14.467,14.997-34.767,24.325-57.249,24.325
			c-22.483,0-42.791-9.328-57.25-24.329c-13.804-14.301-22.288-33.765-22.288-55.204c0-43.926,35.612-79.533,79.537-79.533
			C399.22,79.019,434.828,114.626,434.828,158.552z"/>
		<g>
			<g>
				<path style="fill:#555A5E;" d="M339.552,114.821L339.552,114.821c0-3.612,2.928-6.539,6.539-6.539h16.76
					c10.455,0,18.93,8.475,18.93,18.93v20.324h-39.861L339.552,114.821z"/>
				<path style="fill:#555A5E;" d="M333.304,149.883h-5.603v-27.271c0-6.103,6.249-10.211,11.851-7.791l0,0
					C340.82,121.599,333.304,149.883,333.304,149.883z"/>
			</g>
			<g>
				<path style="fill:#D2D4DA;" d="M367.429,171.5c-1.76,7.73-6.525,13.274-12.131,13.274c-5.61,0-10.384-5.557-12.14-13.295
					l1.354-5.25l0.406-1.569h20.748l1.544,5.999l0.141,0.538L367.429,171.5z"/>
				<g>
					<g>
						<path style="fill:#F4F4F4;" d="M381.399,142.084c10.331-11.592,3.438,16.746-2.277,13.434
							C369.076,149.696,381.399,142.084,381.399,142.084z"/>
						<path style="fill:#F4F4F4;" d="M412.54,213.759c-5.37,5.56-11.54,10.34-18.32,14.16c-10.46,5.89-22.38,9.47-35.09,10.07
							c-1.27,0.07-2.55,0.1-3.84,0.1c-6.41,0-12.64-0.76-18.61-2.19c-8.32-1.99-16.12-5.29-23.19-9.67
							c-5.67-3.51-10.85-7.7-15.45-12.47l1.37-5.4c2.07-8.11,8.46-14.41,16.61-16.36l0.9-0.21l9.99-2.39l2.73-0.65
							c1.15-0.28,2.25-0.67,3.29-1.17c0.87-0.42,1.7-0.91,2.48-1.47c0.84-0.6,1.63-1.28,2.34-2.03c1.91-2.01,3.32-4.49,4.04-7.28
							l1.06-4.12l0.28-1.11l0.02-0.09l1.36-5.25l0.4-1.57h20.75l1.55,6l0.14,0.54l0.08,0.3l0.01,0.07l0.29,1.12l1.06,4.11
							c0.99,3.82,3.28,7.09,6.39,9.31c1.7,1.23,3.65,2.14,5.76,2.64l2.52,0.6l11.1,2.65c8.15,1.95,14.54,8.25,16.61,16.36
							L412.54,213.759z"/>
						<path style="fill:#D2D4DA;" d="M367.429,171.5c-1.76,7.73-6.525,13.274-12.131,13.274c-5.61,0-10.384-5.557-12.14-13.295
							l1.354-5.25l0.406-1.569h20.748l1.544,5.999l0.141,0.538L367.429,171.5z"/>
						<path style="fill:#F4F4F4;" d="M329.195,142.084c-10.331-11.592-3.438,16.746,2.277,13.434
							C341.518,149.696,329.195,142.084,329.195,142.084z"/>
						<path style="fill:#F4F4F4;" d="M379.333,133.733c0,0.88-0.05,1.74-0.15,2.6c-0.08,0.78-0.43,4.11-1.05,8.35l-0.01,0.01
							c-0.34,2.35-0.78,4.98-1.3,7.62c-0.01,0.03-0.01,0.07-0.02,0.1c-1.27,6.43-3.06,12.83-5.4,15.16
							c-2.64,2.64-4.76,5.04-7.18,6.77c-2.42,1.74-5.13,2.82-8.93,2.82c-3.8,0-6.51-1.08-8.93-2.82c-2.41-1.73-4.54-4.13-7.18-6.77
							c-2.34-2.34-4.13-8.75-5.41-15.17v-0.01c-0.01-0.01-0.01-0.02-0.01-0.03c-0.16-0.83-0.31-1.66-0.46-2.48
							c-0.06-0.34-0.12-0.68-0.18-1.02c-0.25-1.44-0.47-2.85-0.67-4.17c-0.72-4.87-1.07-8.54-1.07-8.54
							c-0.08-0.79-0.12-1.6-0.12-2.42c0-0.21,0-0.42,0.01-0.63c0.05-1.89,0.31-3.73,0.78-5.49c0.02-0.08,0.04-0.16,0.06-0.24
							c2.67-9.76,11.34-17.05,21.8-17.63c0.46-0.03,0.91-0.04,1.38-0.04c6.64,0,12.65,2.69,17,7.04c3.76,3.75,6.28,8.75,6.89,14.32
							C379.283,131.943,379.333,132.833,379.333,133.733z"/>
						<path style="fill:#DEDFE0;" d="M359.072,155.342c0,1.659-1.69,3.003-3.78,3.003c-2.08,0-3.77-1.344-3.77-3.003
							c0-0.199,0.02-0.397,0.08-0.583c0.33,1.378,1.86,2.42,3.69,2.42c1.84,0,3.37-1.042,3.7-2.42
							C359.052,154.945,359.072,155.143,359.072,155.342z"/>
					</g>
				</g>
			</g>
			<path style="fill:#555A5E;" d="M380.057,133.929c0,0.906-0.051,1.792-0.154,2.678c-0.082,0.803-1.769,8.075-1.769,8.075
				c-34.55-8.396-37.313-23.084-37.313-23.084c0.113,14.04-8.367,23.094-8.367,23.094c-0.742-5.017-1.79-8.27-1.79-8.27
				c-0.082-0.814-0.124-1.648-0.124-2.493c0-0.216,0-0.433,0.01-0.649c0.051-1.947,0.319-3.842,0.803-5.655
				c0.021-0.082,0.041-0.165,0.062-0.247c2.75-10.054,11.682-17.563,22.457-18.161c0.474-0.031,0.937-0.041,1.422-0.041
				c6.84,0,13.031,2.771,17.512,7.252c3.873,3.863,6.469,9.013,7.098,14.751C380.006,132.085,380.057,133.002,380.057,133.929z"/>
			<g>
				<path style="fill:#6E7174;" d="M412.543,213.813c-14.47,14.99-34.77,24.32-57.25,24.32c-22.48,0-42.79-9.33-57.25-24.33
					l1.37-5.39c2.07-8.12,8.46-14.42,16.61-16.37l10.91-2.6l2.71-0.65c1.22-0.29,2.4-0.72,3.5-1.27c5.54,5.9,13.41,9.59,22.15,9.59
					c8.74,0,16.61-3.69,22.15-9.59c1.1,0.54,2.27,0.98,3.5,1.27l2.37,0.57l11.25,2.68c8.15,1.95,14.54,8.25,16.6,16.37
					L412.543,213.813z"/>
				<path style="fill:#555A5E;" d="M383.314,189.363c-2.44,2.96-11.41,12.33-28.02,12.99c-19.14,0.77-27.84-12.13-28.36-12.91
					l2.71-0.65c1.22-0.29,2.4-0.72,3.5-1.27c5.54,5.9,13.41,9.59,22.15,9.59c8.74,0,16.61-3.69,22.15-9.59
					c1.1,0.54,2.27,0.98,3.5,1.27L383.314,189.363z"/>
			</g>
		</g>
	</g>
</g>
</svg>
